<svg xmlns="http://www.w3.org/2000/svg" viewBox="0 0 220 64" preserveAspectRatio="none" aria-hidden="true">
  <path d="M26 44C43 37 65 34 88 36C111 32 137 34 160 42C175 47 187 53 197 60V64H21V60C31 53 43 48 58 44C76 40 96 40 114 43C133 40 151 41 166 47" fill="black" fill-opacity="0.72"/>
  <path d="M28 48C48 58 72 62 108 62C145 62 172 56 194 45M35 42C61 54 85 58 116 57C146 57 169 52 188 39M48 37C68 47 89 50 115 49C141 49 161 45 176 35" fill="none" stroke="black" stroke-width="4.2" stroke-linecap="round" stroke-opacity="0.82"/>
  <path d="M19 54C47 39 73 32 104 34M201 55C174 39 149 32 118 34" fill="none" stroke="black" stroke-width="5.5" stroke-linecap="round" stroke-opacity="0.78"/>
  <ellipse cx="84" cy="32" rx="10" ry="13" fill="black" fill-opacity="0.75"/>
  <ellipse cx="108" cy="29" rx="11" ry="14" fill="black" fill-opacity="0.88"/>
  <ellipse cx="133" cy="32" rx="10" ry="13" fill="black" fill-opacity="0.75"/>
  <path d="M0 64H220V61H0Z" fill="black" fill-opacity="0.2"/>
</svg>
